<svg xmlns="http://www.w3.org/2000/svg" xmlns:xlink="http://www.w3.org/1999/xlink" width="230" zoomAndPan="magnify" viewBox="0 0 172.5 149.999998" height="200" preserveAspectRatio="xMidYMid meet" version="1.0"><defs><g/><clipPath id="37bf3d428a"><path d="M 0 0.214844 L 172 0.214844 L 172 149.78125 L 0 149.78125 Z M 0 0.214844 " clip-rule="nonzero"/></clipPath><clipPath id="f434caff90"><path d="M 23.648438 52 L 56 52 L 56 94 L 23.648438 94 Z M 23.648438 52 " clip-rule="nonzero"/></clipPath><clipPath id="9ee5564651"><path d="M 35 48.800781 L 75.996094 48.800781 L 75.996094 101.148438 L 35 101.148438 Z M 35 48.800781 " clip-rule="nonzero"/></clipPath><clipPath id="57cb245702"><rect x="0" width="66" y="0" height="50"/></clipPath></defs><g clip-path="url(#37bf3d428a)"><path fill="#ffffff" d="M 0 0.214844 L 172 0.214844 L 172 149.785156 L 0 149.785156 Z M 0 0.214844 " fill-opacity="1" fill-rule="nonzero"/><path fill="#f0ede6" d="M 0 0.214844 L 172 0.214844 L 172 149.785156 L 0 149.785156 Z M 0 0.214844 " fill-opacity="1" fill-rule="nonzero"/></g><g clip-path="url(#f434caff90)"><path fill="#f2c124" d="M 55.722656 90.378906 C 52.472656 92.484375 48.585938 93.710938 44.425781 93.710938 C 32.949219 93.710938 23.640625 84.410156 23.640625 72.929688 C 23.640625 61.453125 32.949219 52.148438 44.425781 52.148438 C 48.585938 52.148438 52.46875 53.371094 55.71875 55.480469 C 53.554688 54.609375 51.191406 54.132812 48.71875 54.132812 C 38.335938 54.132812 29.917969 62.542969 29.917969 72.929688 C 29.917969 83.316406 38.335938 91.722656 48.71875 91.722656 C 51.191406 91.722656 53.558594 91.246094 55.722656 90.378906 Z M 55.722656 90.378906 " fill-opacity="1" fill-rule="nonzero"/></g><path fill="#f2c124" d="M 66.277344 79.867188 C 65.824219 90.941406 56.667969 99.808594 45.476562 99.808594 C 36.789062 99.808594 29.328125 94.457031 26.214844 86.878906 C 30.410156 92.34375 37.007812 95.871094 44.414062 95.871094 C 54.644531 95.871094 63.332031 89.140625 66.277344 79.867188 Z M 66.277344 79.867188 " fill-opacity="1" fill-rule="nonzero"/><g clip-path="url(#9ee5564651)"><path fill="#f2c124" d="M 76.023438 75.398438 C 76.023438 87.777344 67.515625 98.214844 56.039062 101.148438 C 65.300781 97.074219 71.78125 87.8125 71.78125 77.0625 C 71.78125 62.558594 59.984375 50.757812 45.476562 50.757812 C 42.046875 50.757812 38.765625 51.417969 35.757812 52.617188 C 39.757812 50.210938 44.441406 48.820312 49.445312 48.820312 C 64.101562 48.820312 76.023438 60.742188 76.023438 75.398438 Z M 76.023438 75.398438 " fill-opacity="1" fill-rule="nonzero"/></g><path fill="#efcd5c" d="M 56.175781 69.710938 L 52.410156 69.710938 L 52.410156 65.945312 C 52.410156 65.535156 52.078125 65.203125 51.671875 65.203125 L 48.503906 65.203125 C 48.09375 65.203125 47.761719 65.535156 47.761719 65.945312 L 47.761719 69.710938 L 43.992188 69.710938 C 43.585938 69.710938 43.253906 70.042969 43.253906 70.449219 L 43.253906 73.617188 C 43.253906 74.027344 43.585938 74.359375 43.992188 74.359375 L 47.761719 74.359375 L 47.761719 78.128906 C 47.761719 78.535156 48.097656 78.867188 48.503906 78.867188 L 51.671875 78.867188 C 52.078125 78.867188 52.410156 78.535156 52.410156 78.128906 L 52.410156 74.359375 L 56.175781 74.359375 C 56.585938 74.359375 56.917969 74.023438 56.917969 73.617188 L 56.917969 70.449219 C 56.917969 70.042969 56.585938 69.710938 56.175781 69.710938 Z M 56.175781 69.710938 " fill-opacity="1" fill-rule="nonzero"/><path fill="#efcd5c" d="M 50.082031 87.453125 L 38.542969 75.914062 C 36.746094 74.121094 35.757812 71.730469 35.757812 69.1875 C 35.757812 66.640625 36.746094 64.253906 38.542969 62.457031 C 41.605469 59.398438 46.410156 58.832031 50.082031 60.980469 C 53.753906 58.828125 58.558594 59.398438 61.621094 62.457031 C 63.417969 64.253906 64.40625 66.644531 64.40625 69.183594 C 64.40625 71.722656 63.417969 74.113281 61.621094 75.910156 L 50.082031 87.449219 Z M 45.28125 62.398438 C 43.523438 62.398438 41.769531 63.070312 40.460938 64.378906 C 39.179688 65.660156 38.472656 67.367188 38.472656 69.1875 C 38.472656 71.011719 39.179688 72.714844 40.460938 73.996094 L 50.082031 83.617188 L 59.703125 73.996094 C 60.988281 72.707031 61.691406 71 61.691406 69.1875 C 61.691406 67.371094 60.984375 65.660156 59.703125 64.378906 C 57.351562 62.027344 53.5625 61.734375 50.886719 63.699219 L 50.082031 64.285156 L 49.28125 63.699219 C 48.089844 62.828125 46.683594 62.398438 45.28125 62.398438 Z M 45.28125 62.398438 " fill-opacity="1" fill-rule="nonzero"/><g transform="matrix(1, 0, 0, 1, 82, 50)"><g clip-path="url(#57cb245702)"><g fill="#f2c124" fill-opacity="1"><g transform="translate(0.414724, 11.563)"><g><path d="M 3 -6.1875 L 3 0 L 0.71875 0 L 0.71875 -9.984375 L 3 -9.984375 L 6.96875 -3.78125 L 6.984375 -3.78125 L 6.984375 -9.984375 L 9.265625 -9.984375 L 9.265625 0 L 6.984375 0 L 3.03125 -6.1875 Z M 3 -6.1875 "/></g></g></g><g fill="#f2c124" fill-opacity="1"><g transform="translate(10.40576, 11.563)"><g><path d="M 1.3125 -0.734375 C 0.625 -1.347656 0.28125 -2.132812 0.28125 -3.09375 C 0.28125 -4.050781 0.640625 -4.835938 1.359375 -5.453125 C 2.078125 -6.078125 2.960938 -6.390625 4.015625 -6.390625 C 5.054688 -6.390625 5.929688 -6.078125 6.640625 -5.453125 C 7.359375 -4.828125 7.71875 -4.039062 7.71875 -3.09375 C 7.71875 -2.144531 7.367188 -1.359375 6.671875 -0.734375 C 5.972656 -0.117188 5.085938 0.1875 4.015625 0.1875 C 2.898438 0.1875 2 -0.117188 1.3125 -0.734375 Z M 2.96875 -4.140625 C 2.6875 -3.867188 2.546875 -3.519531 2.546875 -3.09375 C 2.546875 -2.664062 2.675781 -2.316406 2.9375 -2.046875 C 3.207031 -1.773438 3.5625 -1.640625 4 -1.640625 C 4.414062 -1.640625 4.757812 -1.773438 5.03125 -2.046875 C 5.300781 -2.328125 5.4375 -2.675781 5.4375 -3.09375 C 5.4375 -3.519531 5.296875 -3.867188 5.015625 -4.140625 C 4.742188 -4.421875 4.40625 -4.5625 4 -4.5625 C 3.59375 -4.5625 3.25 -4.421875 2.96875 -4.140625 Z M 2.96875 -4.140625 "/></g></g></g><g fill="#f2c124" fill-opacity="1"><g transform="translate(18.3405, 11.563)"><g><path d="M 2.296875 -6.203125 L 3.8125 -2.828125 L 5.328125 -6.203125 L 7.859375 -6.203125 L 4.53125 0 L 3.078125 0 L -0.234375 -6.203125 Z M 2.296875 -6.203125 "/></g></g></g><g fill="#f2c124" fill-opacity="1"><g transform="translate(25.876077, 11.563)"><g><path d="M 1.140625 -0.765625 C 0.566406 -1.398438 0.28125 -2.175781 0.28125 -3.09375 C 0.28125 -4.007812 0.566406 -4.785156 1.140625 -5.421875 C 1.722656 -6.066406 2.460938 -6.390625 3.359375 -6.390625 C 4.179688 -6.390625 4.859375 -6.128906 5.390625 -5.609375 L 5.390625 -6.203125 L 7.53125 -6.203125 L 7.53125 0 L 5.421875 0 L 5.421875 -0.703125 L 5.390625 -0.703125 C 4.859375 -0.109375 4.179688 0.1875 3.359375 0.1875 C 2.460938 0.1875 1.722656 -0.128906 1.140625 -0.765625 Z M 2.96875 -4.140625 C 2.6875 -3.867188 2.546875 -3.519531 2.546875 -3.09375 C 2.546875 -2.664062 2.675781 -2.316406 2.9375 -2.046875 C 3.207031 -1.773438 3.5625 -1.640625 4 -1.640625 C 4.414062 -1.640625 4.757812 -1.773438 5.03125 -2.046875 C 5.300781 -2.328125 5.4375 -2.675781 5.4375 -3.09375 C 5.4375 -3.519531 5.296875 -3.867188 5.015625 -4.140625 C 4.742188 -4.421875 4.40625 -4.5625 4 -4.5625 C 3.59375 -4.5625 3.25 -4.421875 2.96875 -4.140625 Z M 2.96875 -4.140625 "/></g></g></g><g fill="#f2c124" fill-opacity="1"><g transform="translate(0.414724, 27.986024)"><g><path d="M 6.4375 -9.984375 L 6.4375 -7.984375 L 3 -7.984375 L 3 -6 L 6.28125 -6 L 6.28125 -4 L 3 -4 L 3 -2 L 6.4375 -2 L 6.4375 0 L 0.71875 0 L 0.71875 -9.984375 Z M 6.4375 -9.984375 "/></g></g></g><g fill="#f2c124" fill-opacity="1"><g transform="translate(7.430224, 27.986024)"><g><path d="M 3.421875 -6.390625 C 3.773438 -6.390625 4.125 -6.347656 4.46875 -6.265625 C 4.820312 -6.179688 5.082031 -6.097656 5.25 -6.015625 L 5.5 -5.90625 L 4.796875 -4.5 C 4.316406 -4.757812 3.859375 -4.890625 3.421875 -4.890625 C 3.179688 -4.890625 3.007812 -4.863281 2.90625 -4.8125 C 2.800781 -4.757812 2.75 -4.660156 2.75 -4.515625 C 2.75 -4.484375 2.753906 -4.445312 2.765625 -4.40625 C 2.773438 -4.375 2.789062 -4.34375 2.8125 -4.3125 C 2.84375 -4.289062 2.867188 -4.269531 2.890625 -4.25 C 2.910156 -4.226562 2.941406 -4.203125 2.984375 -4.171875 C 3.035156 -4.148438 3.070312 -4.132812 3.09375 -4.125 C 3.125 -4.113281 3.171875 -4.097656 3.234375 -4.078125 C 3.304688 -4.054688 3.359375 -4.035156 3.390625 -4.015625 C 3.421875 -4.003906 3.472656 -3.988281 3.546875 -3.96875 C 3.628906 -3.945312 3.6875 -3.929688 3.71875 -3.921875 C 3.96875 -3.847656 4.1875 -3.765625 4.375 -3.671875 C 4.5625 -3.585938 4.753906 -3.46875 4.953125 -3.3125 C 5.160156 -3.15625 5.320312 -2.957031 5.4375 -2.71875 C 5.550781 -2.488281 5.609375 -2.226562 5.609375 -1.9375 C 5.609375 -0.519531 4.628906 0.1875 2.671875 0.1875 C 2.222656 0.1875 1.800781 0.117188 1.40625 -0.015625 C 1.007812 -0.160156 0.722656 -0.300781 0.546875 -0.4375 L 0.28125 -0.65625 L 1.15625 -2.109375 C 1.21875 -2.054688 1.300781 -1.988281 1.40625 -1.90625 C 1.507812 -1.832031 1.695312 -1.726562 1.96875 -1.59375 C 2.238281 -1.46875 2.476562 -1.40625 2.6875 -1.40625 C 3.125 -1.40625 3.34375 -1.550781 3.34375 -1.84375 C 3.34375 -1.988281 3.285156 -2.097656 3.171875 -2.171875 C 3.066406 -2.242188 2.878906 -2.328125 2.609375 -2.421875 C 2.335938 -2.523438 2.125 -2.617188 1.96875 -2.703125 C 1.582031 -2.898438 1.273438 -3.125 1.046875 -3.375 C 0.828125 -3.632812 0.71875 -3.972656 0.71875 -4.390625 C 0.71875 -5.015625 0.957031 -5.503906 1.4375 -5.859375 C 1.925781 -6.210938 2.585938 -6.390625 3.421875 -6.390625 Z M 3.421875 -6.390625 "/></g></g></g><g fill="#f2c124" fill-opacity="1"><g transform="translate(13.381296, 27.986024)"><g><path d="M 7.109375 -5.4375 C 7.691406 -4.800781 7.984375 -4.023438 7.984375 -3.109375 C 7.984375 -2.191406 7.691406 -1.410156 7.109375 -0.765625 C 6.523438 -0.128906 5.785156 0.1875 4.890625 0.1875 C 4.078125 0.1875 3.398438 -0.0703125 2.859375 -0.59375 L 2.859375 3.140625 L 0.71875 3.140625 L 0.71875 -6.203125 L 2.84375 -6.203125 L 2.84375 -5.5 L 2.859375 -5.5 C 3.398438 -6.09375 4.078125 -6.390625 4.890625 -6.390625 C 5.785156 -6.390625 6.523438 -6.070312 7.109375 -5.4375 Z M 5.28125 -2.046875 C 5.5625 -2.328125 5.703125 -2.679688 5.703125 -3.109375 C 5.703125 -3.535156 5.566406 -3.882812 5.296875 -4.15625 C 5.035156 -4.425781 4.6875 -4.5625 4.25 -4.5625 C 3.832031 -4.5625 3.488281 -4.421875 3.21875 -4.140625 C 2.945312 -3.867188 2.8125 -3.523438 2.8125 -3.109375 C 2.8125 -2.679688 2.953125 -2.328125 3.234375 -2.046875 C 3.515625 -1.773438 3.851562 -1.640625 4.25 -1.640625 C 4.664062 -1.640625 5.007812 -1.773438 5.28125 -2.046875 Z M 5.28125 -2.046875 "/></g></g></g><g fill="#f2c124" fill-opacity="1"><g transform="translate(21.642642, 27.986024)"><g><path d="M 7 -2.8125 L 2.5 -2.8125 C 2.5 -2.375 2.640625 -2.050781 2.921875 -1.84375 C 3.203125 -1.632812 3.507812 -1.53125 3.84375 -1.53125 C 4.1875 -1.53125 4.457031 -1.570312 4.65625 -1.65625 C 4.863281 -1.75 5.097656 -1.9375 5.359375 -2.21875 L 6.90625 -1.4375 C 6.257812 -0.351562 5.1875 0.1875 3.6875 0.1875 C 2.75 0.1875 1.945312 -0.128906 1.28125 -0.765625 C 0.613281 -1.410156 0.28125 -2.1875 0.28125 -3.09375 C 0.28125 -4 0.613281 -4.773438 1.28125 -5.421875 C 1.945312 -6.066406 2.75 -6.390625 3.6875 -6.390625 C 4.664062 -6.390625 5.460938 -6.101562 6.078125 -5.53125 C 6.703125 -4.96875 7.015625 -4.15625 7.015625 -3.09375 C 7.015625 -2.945312 7.007812 -2.851562 7 -2.8125 Z M 2.5625 -3.984375 L 4.921875 -3.984375 C 4.867188 -4.304688 4.738281 -4.554688 4.53125 -4.734375 C 4.332031 -4.910156 4.070312 -5 3.75 -5 C 3.394531 -5 3.113281 -4.90625 2.90625 -4.71875 C 2.695312 -4.53125 2.582031 -4.285156 2.5625 -3.984375 Z M 2.5625 -3.984375 "/></g></g></g><g fill="#f2c124" fill-opacity="1"><g transform="translate(28.912132, 27.986024)"><g><path d="M 0.71875 0 L 0.71875 -6.203125 L 2.859375 -6.203125 L 2.859375 -5.3125 L 2.890625 -5.3125 C 2.910156 -5.34375 2.9375 -5.378906 2.96875 -5.421875 C 3.007812 -5.472656 3.085938 -5.554688 3.203125 -5.671875 C 3.328125 -5.796875 3.457031 -5.90625 3.59375 -6 C 3.726562 -6.101562 3.90625 -6.191406 4.125 -6.265625 C 4.34375 -6.347656 4.566406 -6.390625 4.796875 -6.390625 C 5.023438 -6.390625 5.25 -6.351562 5.46875 -6.28125 C 5.695312 -6.21875 5.863281 -6.15625 5.96875 -6.09375 L 6.140625 -6 L 5.25 -4.1875 C 4.976562 -4.40625 4.609375 -4.515625 4.140625 -4.515625 C 3.878906 -4.515625 3.65625 -4.457031 3.46875 -4.34375 C 3.28125 -4.238281 3.148438 -4.101562 3.078125 -3.9375 C 3.003906 -3.78125 2.945312 -3.644531 2.90625 -3.53125 C 2.875 -3.414062 2.859375 -3.328125 2.859375 -3.265625 L 2.859375 0 Z M 0.71875 0 "/></g></g></g><g fill="#f2c124" fill-opacity="1"><g transform="translate(34.838976, 27.986024)"><g><path d="M 1.140625 -0.765625 C 0.566406 -1.398438 0.28125 -2.175781 0.28125 -3.09375 C 0.28125 -4.007812 0.566406 -4.785156 1.140625 -5.421875 C 1.722656 -6.066406 2.460938 -6.390625 3.359375 -6.390625 C 4.179688 -6.390625 4.859375 -6.128906 5.390625 -5.609375 L 5.390625 -6.203125 L 7.53125 -6.203125 L 7.53125 0 L 5.421875 0 L 5.421875 -0.703125 L 5.390625 -0.703125 C 4.859375 -0.109375 4.179688 0.1875 3.359375 0.1875 C 2.460938 0.1875 1.722656 -0.128906 1.140625 -0.765625 Z M 2.96875 -4.140625 C 2.6875 -3.867188 2.546875 -3.519531 2.546875 -3.09375 C 2.546875 -2.664062 2.675781 -2.316406 2.9375 -2.046875 C 3.207031 -1.773438 3.5625 -1.640625 4 -1.640625 C 4.414062 -1.640625 4.757812 -1.773438 5.03125 -2.046875 C 5.300781 -2.328125 5.4375 -2.675781 5.4375 -3.09375 C 5.4375 -3.519531 5.296875 -3.867188 5.015625 -4.140625 C 4.742188 -4.421875 4.40625 -4.5625 4 -4.5625 C 3.59375 -4.5625 3.25 -4.421875 2.96875 -4.140625 Z M 2.96875 -4.140625 "/></g></g></g><g fill="#f2c124" fill-opacity="1"><g transform="translate(43.100322, 27.986024)"><g><path d="M 0.71875 0 L 0.71875 -6.203125 L 2.859375 -6.203125 L 2.859375 -5.546875 L 2.890625 -5.546875 C 3.441406 -6.109375 4.035156 -6.390625 4.671875 -6.390625 C 4.972656 -6.390625 5.273438 -6.347656 5.578125 -6.265625 C 5.878906 -6.179688 6.171875 -6.054688 6.453125 -5.890625 C 6.734375 -5.722656 6.957031 -5.484375 7.125 -5.171875 C 7.300781 -4.859375 7.390625 -4.5 7.390625 -4.09375 L 7.390625 0 L 5.25 0 L 5.25 -3.5 C 5.25 -3.820312 5.144531 -4.101562 4.9375 -4.34375 C 4.726562 -4.59375 4.460938 -4.71875 4.140625 -4.71875 C 3.816406 -4.71875 3.519531 -4.59375 3.25 -4.34375 C 2.988281 -4.09375 2.859375 -3.8125 2.859375 -3.5 L 2.859375 0 Z M 0.71875 0 "/></g></g></g><g fill="#f2c124" fill-opacity="1"><g transform="translate(51.09557, 27.986024)"><g><path d="M 2.140625 1.46875 L 2.609375 0 C 1.941406 -0.226562 1.382812 -0.625 0.9375 -1.1875 C 0.5 -1.75 0.28125 -2.378906 0.28125 -3.078125 C 0.28125 -3.984375 0.625 -4.757812 1.3125 -5.40625 C 2 -6.0625 2.800781 -6.390625 3.71875 -6.390625 C 4.125 -6.390625 4.5 -6.335938 4.84375 -6.234375 C 5.195312 -6.140625 5.445312 -6.046875 5.59375 -5.953125 L 5.796875 -5.8125 L 5.0625 -4.34375 C 4.800781 -4.53125 4.457031 -4.625 4.03125 -4.625 C 3.625 -4.625 3.273438 -4.472656 2.984375 -4.171875 C 2.691406 -3.878906 2.546875 -3.523438 2.546875 -3.109375 C 2.546875 -2.679688 2.691406 -2.316406 2.984375 -2.015625 C 3.273438 -1.722656 3.625 -1.578125 4.03125 -1.578125 C 4.21875 -1.578125 4.398438 -1.597656 4.578125 -1.640625 C 4.753906 -1.691406 4.878906 -1.742188 4.953125 -1.796875 L 5.0625 -1.859375 L 5.796875 -0.375 C 5.734375 -0.332031 5.648438 -0.28125 5.546875 -0.21875 C 5.453125 -0.164062 5.222656 -0.0859375 4.859375 0.015625 C 4.503906 0.128906 4.125 0.1875 3.71875 0.1875 C 3.613281 0.1875 3.539062 0.179688 3.5 0.171875 L 3.296875 0.765625 C 3.679688 0.765625 4.035156 0.875 4.359375 1.09375 C 4.691406 1.3125 4.859375 1.613281 4.859375 2 C 4.859375 2.425781 4.707031 2.789062 4.40625 3.09375 C 4.101562 3.40625 3.644531 3.5625 3.03125 3.5625 C 2.707031 3.5625 2.390625 3.472656 2.078125 3.296875 C 1.765625 3.128906 1.53125 2.96875 1.375 2.8125 L 1.15625 2.546875 L 2.03125 1.90625 C 2.0625 1.9375 2.109375 1.984375 2.171875 2.046875 C 2.234375 2.117188 2.347656 2.207031 2.515625 2.3125 C 2.691406 2.414062 2.863281 2.46875 3.03125 2.46875 C 3.238281 2.46875 3.390625 2.421875 3.484375 2.328125 C 3.578125 2.234375 3.625 2.125 3.625 2 C 3.625 1.820312 3.546875 1.6875 3.390625 1.59375 C 3.242188 1.5 3.070312 1.453125 2.875 1.453125 C 2.75 1.453125 2.632812 1.457031 2.53125 1.46875 C 2.425781 1.488281 2.359375 1.507812 2.328125 1.53125 L 2.265625 1.5625 Z M 2.140625 1.46875 "/></g></g></g><g fill="#f2c124" fill-opacity="1"><g transform="translate(56.974038, 27.986024)"><g><path d="M 1.140625 -0.765625 C 0.566406 -1.398438 0.28125 -2.175781 0.28125 -3.09375 C 0.28125 -4.007812 0.566406 -4.785156 1.140625 -5.421875 C 1.722656 -6.066406 2.460938 -6.390625 3.359375 -6.390625 C 4.179688 -6.390625 4.859375 -6.128906 5.390625 -5.609375 L 5.390625 -6.203125 L 7.53125 -6.203125 L 7.53125 0 L 5.421875 0 L 5.421875 -0.703125 L 5.390625 -0.703125 C 4.859375 -0.109375 4.179688 0.1875 3.359375 0.1875 C 2.460938 0.1875 1.722656 -0.128906 1.140625 -0.765625 Z M 2.96875 -4.140625 C 2.6875 -3.867188 2.546875 -3.519531 2.546875 -3.09375 C 2.546875 -2.664062 2.675781 -2.316406 2.9375 -2.046875 C 3.207031 -1.773438 3.5625 -1.640625 4 -1.640625 C 4.414062 -1.640625 4.757812 -1.773438 5.03125 -2.046875 C 5.300781 -2.328125 5.4375 -2.675781 5.4375 -3.09375 C 5.4375 -3.519531 5.296875 -3.867188 5.015625 -4.140625 C 4.742188 -4.421875 4.40625 -4.5625 4 -4.5625 C 3.59375 -4.5625 3.25 -4.421875 2.96875 -4.140625 Z M 2.96875 -4.140625 "/></g></g></g><g fill="#f2c124" fill-opacity="1"><g transform="translate(0.414724, 44.409047)"><g><path d="M 6.5 -9.984375 L 6.5 -7.984375 L 3 -7.984375 L 3 -6 L 6.234375 -6 L 6.234375 -4 L 3 -4 L 3 0 L 0.71875 0 L 0.71875 -9.984375 Z M 6.5 -9.984375 "/></g></g></g><g fill="#f2c124" fill-opacity="1"><g transform="translate(6.885748, 44.409047)"><g><path d="M 1.140625 -0.765625 C 0.566406 -1.398438 0.28125 -2.175781 0.28125 -3.09375 C 0.28125 -4.007812 0.566406 -4.785156 1.140625 -5.421875 C 1.722656 -6.066406 2.460938 -6.390625 3.359375 -6.390625 C 4.179688 -6.390625 4.859375 -6.128906 5.390625 -5.609375 L 5.390625 -6.203125 L 7.53125 -6.203125 L 7.53125 0 L 5.421875 0 L 5.421875 -0.703125 L 5.390625 -0.703125 C 4.859375 -0.109375 4.179688 0.1875 3.359375 0.1875 C 2.460938 0.1875 1.722656 -0.128906 1.140625 -0.765625 Z M 2.96875 -4.140625 C 2.6875 -3.867188 2.546875 -3.519531 2.546875 -3.09375 C 2.546875 -2.664062 2.675781 -2.316406 2.9375 -2.046875 C 3.207031 -1.773438 3.5625 -1.640625 4 -1.640625 C 4.414062 -1.640625 4.757812 -1.773438 5.03125 -2.046875 C 5.300781 -2.328125 5.4375 -2.675781 5.4375 -3.09375 C 5.4375 -3.519531 5.296875 -3.867188 5.015625 -4.140625 C 4.742188 -4.421875 4.40625 -4.5625 4 -4.5625 C 3.59375 -4.5625 3.25 -4.421875 2.96875 -4.140625 Z M 2.96875 -4.140625 "/></g></g></g><g fill="#f2c124" fill-opacity="1"><g transform="translate(15.147094, 44.409047)"><g><path d="M 0.71875 0 L 0.71875 -6.203125 L 2.859375 -6.203125 L 2.859375 -5.3125 L 2.890625 -5.3125 C 2.910156 -5.34375 2.9375 -5.378906 2.96875 -5.421875 C 3.007812 -5.472656 3.085938 -5.554688 3.203125 -5.671875 C 3.328125 -5.796875 3.457031 -5.90625 3.59375 -6 C 3.726562 -6.101562 3.90625 -6.191406 4.125 -6.265625 C 4.34375 -6.347656 4.566406 -6.390625 4.796875 -6.390625 C 5.023438 -6.390625 5.25 -6.351562 5.46875 -6.28125 C 5.695312 -6.21875 5.863281 -6.15625 5.96875 -6.09375 L 6.140625 -6 L 5.25 -4.1875 C 4.976562 -4.40625 4.609375 -4.515625 4.140625 -4.515625 C 3.878906 -4.515625 3.65625 -4.457031 3.46875 -4.34375 C 3.28125 -4.238281 3.148438 -4.101562 3.078125 -3.9375 C 3.003906 -3.78125 2.945312 -3.644531 2.90625 -3.53125 C 2.875 -3.414062 2.859375 -3.328125 2.859375 -3.265625 L 2.859375 0 Z M 0.71875 0 "/></g></g></g><g fill="#f2c124" fill-opacity="1"><g transform="translate(21.170748, 44.409047)"><g><path d="M 0.71875 0 L 0.71875 -6.203125 L 2.859375 -6.203125 L 2.859375 -5.546875 L 2.890625 -5.546875 C 3.441406 -6.109375 4.035156 -6.390625 4.671875 -6.390625 C 5.117188 -6.390625 5.539062 -6.296875 5.9375 -6.109375 C 6.332031 -5.921875 6.628906 -5.632812 6.828125 -5.25 C 7.460938 -6.007812 8.148438 -6.390625 8.890625 -6.390625 C 9.546875 -6.390625 10.113281 -6.203125 10.59375 -5.828125 C 11.070312 -5.453125 11.3125 -4.875 11.3125 -4.09375 L 11.3125 0 L 9.171875 0 L 9.171875 -3.5 C 9.171875 -3.832031 9.078125 -4.109375 8.890625 -4.328125 C 8.710938 -4.554688 8.441406 -4.671875 8.078125 -4.671875 C 7.765625 -4.671875 7.523438 -4.570312 7.359375 -4.375 C 7.191406 -4.1875 7.101562 -3.960938 7.09375 -3.703125 L 7.09375 0 L 4.953125 0 L 4.953125 -3.5 C 4.953125 -3.832031 4.859375 -4.109375 4.671875 -4.328125 C 4.492188 -4.554688 4.222656 -4.671875 3.859375 -4.671875 C 3.523438 -4.671875 3.273438 -4.566406 3.109375 -4.359375 C 2.941406 -4.148438 2.859375 -3.90625 2.859375 -3.625 L 2.859375 0 Z M 0.71875 0 "/></g></g></g><g fill="#f2c124" fill-opacity="1"><g transform="translate(33.08499, 44.409047)"><g><path d="M 1.140625 -0.765625 C 0.566406 -1.398438 0.28125 -2.175781 0.28125 -3.09375 C 0.28125 -4.007812 0.566406 -4.785156 1.140625 -5.421875 C 1.722656 -6.066406 2.460938 -6.390625 3.359375 -6.390625 C 4.179688 -6.390625 4.859375 -6.128906 5.390625 -5.609375 L 5.390625 -6.203125 L 7.53125 -6.203125 L 7.53125 0 L 5.421875 0 L 5.421875 -0.703125 L 5.390625 -0.703125 C 4.859375 -0.109375 4.179688 0.1875 3.359375 0.1875 C 2.460938 0.1875 1.722656 -0.128906 1.140625 -0.765625 Z M 2.96875 -4.140625 C 2.6875 -3.867188 2.546875 -3.519531 2.546875 -3.09375 C 2.546875 -2.664062 2.675781 -2.316406 2.9375 -2.046875 C 3.207031 -1.773438 3.5625 -1.640625 4 -1.640625 C 4.414062 -1.640625 4.757812 -1.773438 5.03125 -2.046875 C 5.300781 -2.328125 5.4375 -2.675781 5.4375 -3.09375 C 5.4375 -3.519531 5.296875 -3.867188 5.015625 -4.140625 C 4.742188 -4.421875 4.40625 -4.5625 4 -4.5625 C 3.59375 -4.5625 3.25 -4.421875 2.96875 -4.140625 Z M 2.96875 -4.140625 "/></g></g></g></g></g></svg>